<?xml version="1.0" encoding="UTF-8" standalone="no"?>
<svg
   xmlns:dc="http://purl.org/dc/elements/1.1/"
   xmlns:cc="http://creativecommons.org/ns#"
   xmlns:rdf="http://www.w3.org/1999/02/22-rdf-syntax-ns#"
   xmlns:svg="http://www.w3.org/2000/svg"
   xmlns="http://www.w3.org/2000/svg"
   viewBox="0 0 385.33334 250.66667"
   height="250.66667"
   width="385.33334"
   xml:space="preserve"
   id="svg2"
   version="1.1"><metadata
     id="metadata8"><rdf:RDF><cc:Work
         rdf:about=""><dc:format>image/svg+xml</dc:format><dc:type
           rdf:resource="http://purl.org/dc/dcmitype/StillImage" /></cc:Work></rdf:RDF></metadata><defs
     id="defs6" /><g
     transform="matrix(1.3333333,0,0,-1.3333333,0,250.66667)"
     id="g10"><g
       transform="scale(0.1)"
       id="g12"><path
         id="path14"
         style="fill:#ab1b2c;fill-opacity:1;fill-rule:nonzero;stroke:none"
         d="m 404.145,1860.46 h -12.516 c -0.695,-14.58 -8.356,-20.85 -22.934,-20.85 -28.746,0 -74.933,34.29 -124.07,35.44 h -4.547 C 98.7266,1873.72 13.3125,1734.02 13.3125,1610.8 c 0,-124.49 82.0469,-247.58 219.7615,-247.58 83.461,0 114.754,39.64 136.989,39.64 14.597,0 22.953,-18.1 25.71,-28.53 h 10.45 v 170.4 h -10.45 l -4.144,-23.64 c -9.731,-56.32 -61.899,-145.34 -151.582,-145.34 -79.32,0 -109.883,74.38 -109.883,243.39 0,177.36 41.727,243.41 111.941,243.41 79.301,0 138.407,-95.27 149.524,-166.21 h 12.516 v 164.12" /><path
         id="path16"
         style="fill:#ab1b2c;fill-opacity:1;fill-rule:nonzero;stroke:none"
         d="m 783.605,1433.33 h -12.339 c 0,-17.84 -7.547,-38.41 -23.985,-38.41 -12.383,0 -15.797,13.02 -15.797,34.29 v 157.77 c 0,78.18 -73.402,97.37 -144.015,97.37 -68.606,0 -118.684,-33.56 -118.684,-72 0,-23.98 13.727,-44.58 44.602,-44.58 26.054,0 41.816,17.14 41.816,41.13 0,32.96 -34.269,30.91 -34.965,42.56 -0.707,15.1 39.094,20.55 62.41,20.55 51.446,0 58.305,-25.36 58.305,-66.5 v -57.61 l -67.215,-5.48 c -62.449,-4.79 -130.343,-21.29 -130.343,-92.6 0,-59.71 53.511,-83.69 106.32,-83.69 26.765,0 74.098,10.26 91.933,43.21 12.336,-28.83 37.723,-43.21 68.598,-43.21 44.563,0 73.359,26.72 73.359,67.2 z m -142.652,22.65 c -1.375,-36.37 -21.933,-69.31 -54.207,-69.31 -46.613,0 -48.683,42.54 -48.683,78.23 0,36.36 4.128,60.35 48.683,65.15 l 54.207,5.51 v -79.58" /><path
         id="path18"
         style="fill:#ab1b2c;fill-opacity:1;fill-rule:nonzero;stroke:none"
         d="m 787.73,1374.35 h 205.11 v 12.33 h -63.121 v 174.92 c 0,52.81 16.433,89.87 59.687,109.04 h 2.766 c -11.688,-12.31 -16.508,-23.3 -16.508,-40.46 0,-26.73 19.926,-44.59 46.646,-44.59 32.94,0 52.14,24.03 52.14,50.08 0,32.94 -21.96,52.83 -54.17,52.83 -43.889,0 -77.522,-30.17 -90.561,-64.5 h -1.36 v 69.99 c -14.406,-17.86 -65.183,-17.86 -93.265,-17.86 H 787.73 v -12.32 h 47.364 V 1386.68 H 787.73 v -12.33" /><path
         id="path20"
         style="fill:#ab1b2c;fill-opacity:1;fill-rule:nonzero;stroke:none"
         d="m 1085.41,1374.35 h 182.47 v 12.33 h -40.45 v 187.97 c 0,34.97 34.27,85.04 72.7,85.04 19.89,0 40.48,-8.22 40.48,-56.24 v -216.77 h -39.15 v -12.33 h 181.11 v 12.33 h -47.31 v 191.4 c 0,74.06 -31.57,106.3 -96.74,106.3 -45.95,0 -91.2,-24.03 -109.73,-63.81 h -1.36 v 73.42 c -14.41,-17.86 -65.19,-17.86 -93.27,-17.86 h -48.75 v -12.32 h 47.36 v -277.13 h -47.36 v -12.33" /><path
         id="path22"
         style="fill:#ab1b2c;fill-opacity:1;fill-rule:nonzero;stroke:none"
         d="m 2112.95,1653.52 c 0,23.99 -26.07,36.33 -46.64,36.33 -22.68,0 -39.8,-15.07 -52.81,-30.17 -19.92,14.4 -47.34,24.69 -85.77,24.69 -57.6,0 -119.35,-37.7 -119.35,-100.15 0,-37.7 20.57,-67.2 56.93,-83.68 v -1.36 c -26.72,-3.43 -68.57,-21.93 -68.57,-78.89 0,-34.28 15.75,-60.34 44.6,-68.58 v -1.38 c -27.46,-7.54 -59.03,-34.99 -59.03,-67.89 0,-50.78 59.7,-89.86 135.84,-89.86 95.35,0 157.76,64.47 157.76,148.15 0,66.52 -32.91,96.69 -100.15,95.33 h -113.88 c -17.12,0 -40.44,0.69 -40.44,19.23 0,17.14 29.5,35.68 55.52,35.68 7.56,0 15.07,-2.08 22.63,-4.13 8.28,-2.74 17.2,-4.14 28.14,-4.14 59,0 122.09,33.61 122.09,98.8 0,21.94 -10.31,52.8 -29.49,69.26 12.36,12.37 18.51,27.44 45.27,30.87 v -1.38 c -14.37,-7.53 -18.51,-16.45 -18.51,-30.18 0,-15.77 10.95,-31.53 31.57,-31.53 21.93,0 34.29,16.45 34.29,34.98 z M 1852.3,1349.64 h 107.68 c 68.6,0 91.25,-6.15 91.25,-48.02 0,-50.06 -61.78,-96.71 -131.01,-96.71 -61.74,0 -95.37,41.86 -96.76,74.77 0,30.18 10.34,50.07 28.84,69.96 z m 119.32,234.58 c -0.67,-84.34 -18.53,-89.16 -43.21,-89.16 -27.45,0 -41.85,8.91 -41.85,91.23 0,55.59 6.18,85.72 41.85,85.72 32.25,0 42.54,-8.88 43.21,-87.79" /><path
         id="path24"
         style="fill:#ab1b2c;fill-opacity:1;fill-rule:nonzero;stroke:none"
         d="m 2123.94,1374.35 h 189.29 v 12.33 h -47.35 v 307.31 c -14.4,-17.86 -65.15,-17.86 -93.26,-17.86 h -48.68 v -12.32 h 47.29 v -277.13 h -47.29 v -12.33" /><path
         id="path26"
         style="fill:#ab1b2c;fill-opacity:1;fill-rule:nonzero;stroke:none"
         d="m 2169.68,1782.66 c 0,-27.17 21.74,-48.87 48.87,-48.87 27.19,0 48.9,21.7 48.9,48.87 0,27.17 -21.71,48.9 -48.9,48.9 -27.13,0 -48.87,-21.73 -48.87,-48.9" /><path
         id="path28"
         style="fill:#ab1b2c;fill-opacity:1;fill-rule:nonzero;stroke:none"
         d="m 2414.3,1540.35 h 189.28 c -0.68,74.06 -69.28,145.39 -141.25,144.03 -80.98,0 -150.93,-69.97 -150.93,-162.56 0,-89.17 65.16,-155.71 152.97,-155.71 84.33,0 126.18,52.13 141.28,120.04 h -12.35 c -15.08,-63.79 -54.86,-103.59 -108.38,-103.59 -63.76,0 -70.62,53.52 -70.62,100.16 z m 1.47,12.34 -1.47,58.99 c 0,45.95 19.86,60.35 43.21,60.35 32.9,0 43.22,-22.63 43.22,-60.35 v -58.99 h -84.96" /><path
         id="path30"
         style="fill:#ab1b2c;fill-opacity:1;fill-rule:nonzero;stroke:none"
         d="M 6.37891,771.16 H 139.402 v 12.34 h -9.589 c -37.0083,0 -51.4341,9.641 -51.4341,65.148 v 388.932 h 1.3906 L 243.68,771.16 h 18.523 l 159.805,458.2 h 1.375 V 783.5 h -58.969 v -12.34 h 217.449 v 12.34 h -51.468 v 458.21 h 51.468 v 12.33 H 416.523 L 300.602,922.77 H 299.27 L 185.387,1254.04 H 9.79297 v -12.33 H 61.9297 V 842.5 c 0,-29.473 -6.8555,-59 -52.83204,-59 H 6.37891 v -12.34" /><path
         id="path32"
         style="fill:#ab1b2c;fill-opacity:1;fill-rule:nonzero;stroke:none"
         d="m 678.023,937.152 h 189.329 c -0.664,74.088 -69.282,145.398 -141.325,144.028 -80.914,0 -150.886,-69.94 -150.886,-162.547 0,-89.195 65.16,-155.715 152.957,-155.715 84.379,0 126.234,52.152 141.308,120.016 h -12.34 C 841.984,819.18 802.164,779.371 748.648,779.371 c -63.75,0 -70.625,53.547 -70.625,100.133 z m 0,12.34 v 58.998 c 0,45.94 19.895,60.35 43.211,60.35 32.942,0 43.231,-22.64 43.231,-60.35 v -58.998 h -86.442" /><path
         id="path34"
         style="fill:#ab1b2c;fill-opacity:1;fill-rule:nonzero;stroke:none"
         d="m 869.422,771.16 h 189.308 v 12.34 h -47.35 v 491.12 c -12.345,-20.58 -50.064,-20.58 -98.775,-20.58 h -43.183 v -12.33 h 47.332 V 783.5 h -47.332 v -12.34" /><path
         id="path36"
         style="fill:#ab1b2c;fill-opacity:1;fill-rule:nonzero;stroke:none"
         d="m 1071.07,771.16 h 189.3 v 12.34 h -47.31 v 491.12 c -12.35,-20.58 -50.08,-20.58 -98.79,-20.58 h -43.2 v -12.33 h 47.34 V 783.5 h -47.34 v -12.34" /><path
         id="path38"
         style="fill:#ab1b2c;fill-opacity:1;fill-rule:nonzero;stroke:none"
         d="m 1580.61,922.063 c 0,93.967 -72.68,159.107 -163.23,159.107 -90.53,0 -163.27,-65.14 -163.27,-159.107 0,-93.965 72.74,-159.114 163.27,-159.114 90.55,0 163.23,65.149 163.23,159.114 z m -107,-74.094 c 0,-51.43 -21.25,-72.699 -56.23,-72.699 -35.01,0 -56.23,21.269 -56.23,72.699 v 148.164 c 0,51.427 21.22,72.697 56.23,72.697 34.98,0 56.23,-21.27 56.23,-72.697 V 847.969" /><path
         id="path40"
         style="fill:#ab1b2c;fill-opacity:1;fill-rule:nonzero;stroke:none"
         d="m 1578,771.16 h 182.43 v 12.34 h -40.47 v 187.938 c 0,34.992 34.33,85.042 72.69,85.042 19.92,0 40.49,-8.22 40.49,-56.21 V 783.5 h -39.13 v -12.34 h 181.12 v 12.34 h -47.31 v 191.355 c 0,74.095 -31.6,106.345 -96.74,106.345 -45.96,0 -91.22,-24.03 -109.76,-63.79 h -1.36 v 73.38 c -14.4,-17.84 -65.17,-17.84 -93.26,-17.84 H 1578 v -12.32 h 47.29 V 783.5 H 1578 v -12.34" /><path
         id="path42"
         style="fill:#ab1b2c;fill-opacity:1;fill-rule:nonzero;stroke:none"
         d="m 7.75,651.301 h 53.5 V 340.527 c 0,-106.316 73.391,-170.773 185.203,-170.773 126.219,0 181.063,66.523 181.063,167.344 V 593.66 c 0,39.758 10.98,57.641 35.683,57.641 h 17.86 v 12.32 H 345.203 v -12.32 h 19.922 c 34.961,0 45.941,-17.883 45.941,-57.641 V 332.988 c 0,-93.308 -56.257,-138.539 -122.793,-138.539 -100.125,0 -120.015,67.219 -120.015,155 v 301.852 h 55.543 v 12.32 H 7.75 v -12.32" /><path
         id="path44"
         style="fill:#ab1b2c;fill-opacity:1;fill-rule:nonzero;stroke:none"
         d="M 454.035,180.738 H 636.5 v 12.352 h -40.473 v 187.93 c 0,34.96 34.297,85.078 72.696,85.078 19.886,0 40.488,-8.27 40.488,-56.289 V 193.09 h -39.133 v -12.352 h 181.11 v 12.352 h -47.309 v 191.359 c 0,74.071 -31.594,106.352 -96.734,106.352 -45.977,0 -91.204,-24.051 -109.758,-63.852 h -1.36 v 73.43 c -14.41,-17.852 -65.16,-17.852 -93.273,-17.852 H 454.035 V 470.18 h 47.32 V 193.09 h -47.32 v -12.352" /><path
         id="path46"
         style="fill:#ab1b2c;fill-opacity:1;fill-rule:nonzero;stroke:none"
         d="m 861.473,180.738 h 189.307 v 12.352 h -47.33 V 500.379 C 989.039,482.527 938.277,482.527 910.152,482.527 H 861.473 V 470.18 h 47.324 V 193.09 h -47.324 v -12.352" /><path
         id="path48"
         style="fill:#ab1b2c;fill-opacity:1;fill-rule:nonzero;stroke:none"
         d="m 907.219,589.039 c 0,-27.16 21.738,-48.879 48.894,-48.879 27.2,0 48.887,21.719 48.887,48.879 0,27.149 -21.687,48.871 -48.887,48.871 -27.156,0 -48.894,-21.722 -48.894,-48.871" /><path
         id="path50"
         style="fill:#ab1b2c;fill-opacity:1;fill-rule:nonzero;stroke:none"
         d="m 1190.04,172.52 h 18.49 l 101.54,240.058 c 17.14,38.43 31.52,56.942 47.3,57.621 h 6.17 v 12.328 h -106.99 v -12.328 h 13.04 c 19.9,0 31.54,-7.551 31.54,-25.398 0,-10.992 -3.43,-26.071 -11.64,-45.25 l -46.62,-109.801 -80.28,180.449 h 41.15 v 12.328 h -172.15 v -12.328 h 29.47 L 1190.04,172.52" /><path
         id="path52"
         style="fill:#ab1b2c;fill-opacity:1;fill-rule:nonzero;stroke:none"
         d="m 1444.53,346.73 h 189.3 c -0.68,74.071 -69.28,145.411 -141.33,144.02 -80.91,0 -150.89,-69.949 -150.89,-162.582 0,-89.137 65.19,-155.648 152.95,-155.648 84.39,0 126.24,52.089 141.31,120.007 h -12.32 c -15.08,-63.789 -54.86,-103.566 -108.39,-103.566 -63.81,0 -70.63,53.5 -70.63,100.137 z m 0,12.348 v 58.977 c 0,45.976 19.87,60.363 43.18,60.363 32.92,0 43.24,-22.629 43.24,-60.363 v -58.977 h -86.42" /><path
         id="path54"
         style="fill:#ab1b2c;fill-opacity:1;fill-rule:nonzero;stroke:none"
         d="m 1635.11,180.738 h 205.11 v 12.352 h -63.13 v 174.871 c 0,52.84 16.49,89.867 59.7,109.07 h 2.72 c -11.67,-12.32 -16.46,-23.301 -16.46,-40.5 0,-26.722 19.92,-44.551 46.64,-44.551 32.95,0 52.13,24 52.13,50.098 0,32.942 -21.9,52.801 -54.17,52.801 -43.92,0 -77.47,-30.168 -90.56,-64.5 h -1.36 v 70 c -14.4,-17.852 -65.16,-17.852 -93.3,-17.852 h -47.32 V 470.18 h 47.32 V 193.09 h -47.32 v -12.352" /><path
         id="path56"
         style="fill:#ab1b2c;fill-opacity:1;fill-rule:nonzero;stroke:none"
         d="m 1938.07,172.52 h 12.36 c 3.4,10.968 14.36,16.441 28.08,16.441 17.85,0 39.13,-16.441 77.54,-16.441 65.17,0 109.74,56.218 109.74,112.441 0,83.699 -57.6,89.91 -131.01,100.187 -38.42,5.5 -62.42,11.653 -62.42,41.801 0,32.281 28.14,51.469 65.14,51.469 51.45,0 78.9,-40.469 96.05,-85.047 h 10.96 l -4.08,97.379 h -10.31 c 0,-8.223 -8.22,-15.082 -21.23,-15.082 -21.98,0 -39.81,15.082 -71.39,15.082 -68.6,0 -102.2,-58.301 -102.2,-102.172 0,-88.488 67.24,-96.051 119.39,-102.207 49.39,-6.203 69.96,-10.992 69.96,-42.551 0,-36.359 -30.15,-59 -67.22,-59 -52.14,0 -94.68,52.848 -107,102.918 h -12.36 V 172.52" /><path
         id="path58"
         style="fill:#ab1b2c;fill-opacity:1;fill-rule:nonzero;stroke:none"
         d="m 2176.57,180.738 h 189.32 v 12.352 h -47.33 v 307.289 c -14.37,-17.852 -65.17,-17.852 -93.28,-17.852 h -48.71 V 470.18 h 47.34 V 193.09 h -47.34 v -12.352" /><path
         id="path60"
         style="fill:#ab1b2c;fill-opacity:1;fill-rule:nonzero;stroke:none"
         d="m 2222.37,589.039 c 0,-27.16 21.68,-48.879 48.87,-48.879 27.13,0 48.89,21.719 48.89,48.879 0,27.149 -21.76,48.871 -48.89,48.871 -27.19,0 -48.87,-21.722 -48.87,-48.871" /><path
         id="path62"
         style="fill:#ab1b2c;fill-opacity:1;fill-rule:nonzero;stroke:none"
         d="m 2398.68,470.18 v -219.5 c 0,-65.153 56.22,-78.16 75.43,-78.16 41.85,0 69.99,17.121 91.22,52.789 l -8.93,4.789 c -8.22,-12.348 -19.19,-28.789 -36.3,-28.789 -17.85,0 -26.78,13.011 -26.78,35.652 V 470.18 h 63.08 v 12.347 h -63.08 V 630.02 h -12.35 c 0,-72.68 -49.36,-147.493 -118.67,-147.493 V 470.18 h 36.38" /><path
         id="path64"
         style="fill:#ab1b2c;fill-opacity:1;fill-rule:nonzero;stroke:none"
         d="m 2554.36,470.18 h 28.82 l 131.71,-305.219 -4.13,-27.441 c -2.72,-19.899 -16.44,-98.1294 -39.09,-104.9614 v 2.0391 c 2.73,9.6132 3.44,17.2031 3.44,23.3515 0,23.3203 -16.5,41.1406 -45.29,41.1406 -30.18,0 -45.29,-20.5703 -45.29,-46.6093 0,-28.1719 26.07,-48.03128 56.28,-48.03128 54.19,0 67.9,59.64848 74.08,88.46878 l 18.51,83.68 35.67,89.152 67.9,152.98 c 15.07,35 28.81,51.45 43.91,51.45 h 5.5 v 12.347 H 2779.33 V 470.18 h 14.42 c 21.96,0 31.57,-12.352 31.57,-23.992 0,-13.739 -8.93,-36.379 -19.89,-62.45 l -39.79,-93.929 -80.22,180.371 h 45.23 v 12.347 H 2554.36 V 470.18" /><path
         id="path66"
         style="fill:#ab1b2c;fill-opacity:1;fill-rule:nonzero;stroke:none"
         d="m 1590.95,1540.35 h 189.3 c -0.66,74.06 -69.3,145.39 -141.27,144.03 -80.96,0 -150.89,-69.97 -150.89,-162.56 0,-89.17 65.14,-155.71 152.93,-155.71 84.35,0 126.22,52.13 141.29,120.04 h -12.32 c -15.1,-63.79 -54.9,-103.59 -108.4,-103.59 -63.78,0 -70.64,53.52 -70.64,100.16 z m 1.49,12.34 -1.49,58.99 c 0,45.95 19.89,60.35 43.21,60.35 32.93,0 43.21,-22.63 43.21,-60.35 v -58.99 h -84.93" /></g></g></svg>